<svg xmlns="http://www.w3.org/2000/svg" height="35" viewBox="0 0 500.5 489.862">
  <style>
    .st1{fill:#33cc72}
  </style>
  <path d="M135.03 385.782c-10.8-15.81-17.78-33.95-17.78-54.42h-9v-59h-9v-54h18v5c44.83-72.85 87.92-100.34 126-103.65v-22.35h18v22.54c25.36 2.74 48.03 15.56 66.92 31.3l-3.92-31.34 70.88-94.5 70.87 94.5-34.27 274.15c34.09 5.8 68.52 25.95 68.52 95.35v.25H.25c0-136.87 133.07-82.62 134.78-103.83zm.02-81.42c0 36 124.7 36 124.7 27 0 5.92 53.82 7.94 90.74-1.57l-8.11-70.29h-.01c-47.03-7.67-127.18-14.27-207.32 8.86v36z" fill="#1a405f"/>
  <path class="st1" d="M342.38 259.502l8.11 70.29c-36.92 9.511-90.74 7.49-90.74 1.57 0 9-124.7 9-124.7-27v-36c80.14-23.13 160.29-16.53 207.32-8.86h.01z"/>
  <path class="st1" d="M216.35.362c31.96.63 61.65 13.95 57.669 49.97-1.039 9.47-4.31 18.72-6.77 27.53-3.28 11.72-5.46 13.56-8 19.5h-15c-1.14-32.87-63.83-12.3-78.05.25-13.73 12.11-21.96 27.26-31.95 42.72-9.55 14.77-8 11.03-26 29.03-17.02 17.03-72 45-100.9 32.25 11.61-7.74 23.18-13.28 34.62-22.52 18.87-15.24 37.46-33.48 46.55-56.98 11.94-30.85 6.54-60.57 28.96-87.75C144.21 1.953 177.17-.408 216.35.362z"/>
</svg>
