<?xml version="1.0" encoding="utf-8"?>
<!-- Generator: Adobe Illustrator 16.0.4, SVG Export Plug-In . SVG Version: 6.00 Build 0)  -->
<!DOCTYPE svg PUBLIC "-//W3C//DTD SVG 1.1//EN" "http://www.w3.org/Graphics/SVG/1.1/DTD/svg11.dtd">
<svg version="1.1" id="Layer_1" xmlns="http://www.w3.org/2000/svg" xmlns:xlink="http://www.w3.org/1999/xlink" x="0px" y="0px"
	 width="500px" height="500.001px" viewBox="0 0 500 500.001" style="enable-background:new 0 0 500 500.001;" xml:space="preserve"
	>
<style type="text/css">
<![CDATA[
	.st0{fill:#1A405F;}
	.st1{fill:#231F20;}
	.st2{fill:#FAF4EB;}
	.st3{fill:#33CC72;}
]]>
</style>
<g>
	<path class="st2" d="M500,420.001c0,44-36,80-80,80H80c-44,0-80-36-80-80V80C0,36,36,0,80,0h340c44,0,80,36,80,80V420.001z"/>
</g>
<g>
	<g>
		<g id="XMLID_2_">
			<g>
				<path class="st3" d="M133.166,129.893c-1.522,8.562-3.091,17.43-6.549,26.374c-7.422,19.189-23,33.466-35.731,43.75
					c-5.593,4.515-11.309,7.942-16.84,11.24c-2.976,1.783-6.052,3.627-9.09,5.624c9.61,3.895,24.147,2.456,41.064-4.078
					c16.06-6.206,29.182-14.92,35.065-20.789c3.925-3.933,6.672-6.542,8.677-8.439c5.05-4.805,5.96-5.669,11.163-13.719
					c1.339-2.066,2.64-4.124,3.925-6.174c6.113-9.725,11.882-18.914,20.589-26.588c8.661-7.644,38.378-18.042,52.373-12.004
					c4.989,2.142,7.659,6.09,7.958,11.722h-0.765c-0.291-5.302-2.816-9.013-7.499-11.025c-13.749-5.922-43.015,4.338-51.562,11.882
					c-8.623,7.605-14.369,16.749-20.452,26.419c-1.286,2.051-2.586,4.117-3.925,6.19c-5.249,8.125-6.174,8.998-11.278,13.849
					c-2.004,1.905-4.744,4.507-8.669,8.424c-10.306,10.314-40.865,27.292-64.071,27.292c-4.943,0-9.541-0.765-13.55-2.541
					l-0.643-0.275l0.581-0.398c3.244-2.15,6.534-4.124,9.717-6.021c5.501-3.297,11.201-6.702,16.749-11.178
					c12.663-10.23,28.141-24.415,35.502-43.436c3.435-8.875,4.996-17.697,6.503-26.229c2.556-14.4,4.966-28.003,15.708-41.026
					c20.75-25.157,46.672-26.733,75.954-26.152c16.864,0.329,30.253,5.172,37.683,13.642c5.646,6.427,7.942,14.851,6.817,25.02
					c-0.62,5.631-2.257,11.14-3.841,16.48c-0.467,1.569-0.926,3.106-1.354,4.637c-1.752,6.29-3.106,8.891-4.415,11.423
					c-0.581,1.125-1.132,2.188-1.722,3.558l-0.352-0.153v-0.382h-0.253c0.566-1.286,1.109-2.349,1.646-3.375
					c1.293-2.486,2.624-5.073,4.361-11.27c0.429-1.53,0.888-3.091,1.354-4.652c1.576-5.31,3.205-10.789,3.817-16.351
					c1.095-9.946-1.132-18.164-6.634-24.43c-7.291-8.302-20.475-13.045-37.124-13.375c-29.075-0.582-54.813,0.972-75.35,25.876
					C138.094,102.104,135.699,115.601,133.166,129.893z"/>
				<path class="st3" d="M245.77,136.81c0.015,0.122,0.015,0.245,0.023,0.367l-0.765,0.03c-0.008-0.13-0.008-0.268-0.023-0.397
					H245.77z"/>
				<path class="st3" d="M256.887,137.575h-12.242v-0.765h0.36c0.015,0.13,0.015,0.268,0.023,0.397l0.765-0.03
					c-0.008-0.123-0.008-0.245-0.023-0.367h10.864c-0.03,0.076-0.068,0.153-0.099,0.229l0.352,0.153V137.575z"/>
				<path class="st3" d="M256.887,136.81v0.382l-0.352-0.153c0.03-0.077,0.068-0.153,0.099-0.229H256.887z"/>
				<path class="st3" d="M106.02,212.802c-16.917,6.534-31.454,7.972-41.064,4.078c3.038-1.997,6.114-3.841,9.09-5.624
					c5.532-3.297,11.248-6.725,16.84-11.24c12.732-10.283,28.31-24.56,35.731-43.75c3.458-8.944,5.027-17.812,6.549-26.374
					c2.533-14.292,4.928-27.789,15.54-40.659c20.536-24.905,46.275-26.458,75.35-25.876c16.649,0.329,29.833,5.073,37.124,13.375
					c5.502,6.266,7.729,14.484,6.634,24.43c-0.612,5.562-2.241,11.041-3.817,16.351c-0.467,1.561-0.926,3.122-1.354,4.652
					c-1.737,6.197-3.068,8.784-4.361,11.27c-0.536,1.025-1.079,2.089-1.646,3.375H245.77c-0.298-5.631-2.969-9.58-7.958-11.722
					c-13.994-6.037-43.711,4.361-52.373,12.004c-8.707,7.674-14.476,16.864-20.589,26.588c-1.286,2.05-2.586,4.108-3.925,6.174
					c-5.203,8.049-6.113,8.914-11.163,13.719c-2.005,1.897-4.751,4.507-8.677,8.439C135.201,197.882,122.08,206.597,106.02,212.802z
					"/>
			</g>
			<g>
			</g>
		</g>
	</g>
	<g>
		<g id="XMLID_1_">
			<g>
				<polygon class="st1" points="360.852,82.104 360.538,82.333 360.852,82.746 307.025,154.507 307.002,154.354 306.612,154.408 
					306.313,154.178 360.538,81.874 				"/>
				<path class="st1" d="M321.111,261.25l6.442,53.62l-0.359,0.046l-0.085-0.383c-0.099,0.023-0.206,0.054-0.306,0.077
					l-6.366-52.977c0.092,0.015,0.177,0.03,0.269,0.046l0.053-0.383L321.111,261.25z"/>
				<path class="st1" d="M159.609,295.573l-0.008,1.278l-0.528-0.008c-0.046-0.421-0.069-0.842-0.069-1.27H159.609z"/>
				<path class="st1" d="M309.198,177.538l-2.961-23.084l0.375-0.046l0.313,0.229l0.1-0.13l3.053,23.895l-0.375,0.046l0.245-0.291
					C309.695,177.951,309.451,177.744,309.198,177.538z"/>
				<path class="st1" d="M256.259,317.104c-0.611,0.673-2.333,1.561-7.138,2.272c-4.56,0.689-10.949,1.063-17.988,1.063
					c-16.657,0-34.132-2.004-46.734-5.371c-15.754-4.2-24.469-10.482-25.326-18.225l0.528,0.008l0.008-1.278h0.115
					c0,10.031,13.512,15.731,24.844,18.753c12.556,3.352,29.962,5.348,46.565,5.348c17.077,0,24.759-2.02,24.759-3.443
					C255.892,316.538,256.015,316.828,256.259,317.104z"/>
				<path class="st1" d="M415.459,154.454l-26.803,209.284c-0.114-0.023-0.237-0.038-0.359-0.061l-0.069,0.383l-0.375-0.046
					l26.818-209.506l0.099,0.13l0.314-0.229L415.459,154.454z"/>
				<path class="st1" d="M59.102,436.73c0,0.123,0,0.253,0,0.383H58.72v-0.383H59.102z"/>
				<path class="st1" d="M162.003,357.548l-0.39,0.268c0.016-0.084,0.016-0.176,0.016-0.268H162.003z"/>
				<polygon class="st1" points="361.158,82.333 360.852,82.746 360.538,82.333 360.852,82.104 				"/>
				<path class="st1" d="M441.281,437.504H58.72v-0.391h0.382c0-0.13,0-0.26,0-0.383h381.797c0,0.123,0,0.253,0,0.383h0.382V437.504
					z"/>
				<path class="st1" d="M255.892,316.231h0.712c0,0.184,0,0.498-0.345,0.872C256.015,316.828,255.892,316.538,255.892,316.231z"/>
				<path class="st1" d="M161.629,357.548c0,0.092,0,0.184-0.016,0.268l-0.191,0.13c-8.921-13.145-13.482-27.039-13.558-41.332
					h0.375v-0.383h0.382c0,14.277,4.522,28.164,13.436,41.278l-0.054,0.039H161.629z"/>
				<polygon class="st1" points="415.084,154.408 414.77,154.637 414.671,154.507 414.693,154.354 				"/>
				<path class="st1" d="M258.8,154.086c16.863,1.897,33.811,9.786,50.398,23.451l0.122,0.964l0.383-0.054l-0.245,0.299
					c-16.817-14.033-34.002-22.082-51.079-23.926l0.038-0.382h0.383V154.086z"/>
				<polygon class="st1" points="361.158,81.874 415.382,154.178 415.084,154.408 414.693,154.354 414.671,154.507 360.852,82.746 
					361.158,82.333 360.852,82.104 				"/>
				<path class="st3" d="M326.804,314.609c-27.116,6.932-65.441,5.83-69.871,2.12c-0.153-0.13-0.329-0.306-0.329-0.498h-0.712
					c0,1.423-7.682,3.443-24.759,3.443c-16.604,0-34.01-1.997-46.565-5.348c-11.332-3.022-24.844-8.722-24.844-18.753h-0.115
					l0.237-27.292c60.46-17.093,120.629-13.083,160.591-6.649L326.804,314.609z"/>
				<path class="st1" d="M256.933,316.729c4.43,3.71,42.755,4.812,69.871-2.12l0.038,0.344l0.353-0.038l0.084,0.375
					c-14.445,3.718-31.669,5.188-45.563,5.188c-12.938,0-22.984-1.27-25.226-3.145c-0.085-0.076-0.169-0.153-0.23-0.229
					c0.345-0.375,0.345-0.688,0.345-0.872C256.604,316.423,256.779,316.599,256.933,316.729z"/>
				<path class="st0" d="M281.715,320.478c13.895,0,31.118-1.469,45.563-5.188l-0.084-0.375l0.359-0.046l-6.442-53.62l-0.353,0.046
					l0.054-0.375c-40.107-6.481-100.698-10.559-161.541,6.741l0.092,0.367h-0.229l-0.252,28.814h0.191
					c0.857,7.743,9.572,14.025,25.326,18.225c12.602,3.367,30.077,5.371,46.734,5.371c7.039,0,13.428-0.375,17.988-1.063
					c4.805-0.711,6.527-1.599,7.138-2.272c0.062,0.077,0.146,0.153,0.23,0.229C258.73,319.208,268.776,320.478,281.715,320.478z
					 M245.027,154.293v-16.718h13.007v16.863h0.383l-0.038,0.382c17.077,1.844,34.262,9.893,51.079,23.926l0.245-0.299l0.375-0.046
					l-3.053-23.895l53.826-71.761l53.819,71.761l-26.818,209.506l0.375,0.046l-0.061,0.375
					c35.379,5.792,52.633,29.435,52.732,72.296H59.102c0.061-25.218,6.236-44.14,18.355-56.221
					c17.919-17.866,45.594-17.79,63.903-17.744c10.054,0.031,17.322,0.054,19.97-2.594c0.704-0.704,1.063-1.583,1.063-2.624h-0.391
					l0.054-0.039c-8.914-13.114-13.436-27.001-13.436-41.278h-0.382v-0.382h-6.504v-45.15h-6.886v-40.544h13.007v3.436h0.367
					l0.344,0.207c30.529-49.61,62.863-76.237,96.107-79.121l-0.031-0.383H245.027z"/>
				<polygon class="st1" points="307.025,154.507 306.926,154.637 306.612,154.408 307.002,154.354 				"/>
				<path class="st1" d="M320.759,261.295l-0.053,0.383c-0.092-0.016-0.177-0.031-0.269-0.046l-0.038-0.291L320.759,261.295z"/>
				<path class="st1" d="M159.846,268.036v0.245c-0.13,0.03-0.26,0.069-0.391,0.107l-0.092-0.359L159.846,268.036z"/>
				<path class="st1" d="M148.622,232.251v1.339h-0.398l-0.313-0.191C148.147,233.017,148.384,232.634,148.622,232.251z"/>
				<path class="st1" d="M388.656,363.738l-0.046,0.368l-0.383-0.046l0.069-0.383C388.419,363.7,388.542,363.715,388.656,363.738z"
					/>
				<path class="st1" d="M244.262,154.293v-0.352c0.115-0.007,0.237-0.023,0.352-0.03l0.03,0.382H244.262z"/>
				<path class="st1" d="M258.8,154.086v0.352h-0.383l0.038-0.39C258.57,154.063,258.685,154.071,258.8,154.086z"/>
				<path class="st1" d="M245.027,137.575v16.718h-0.383l-0.03-0.382c-0.115,0.007-0.237,0.023-0.352,0.03V136.81H258.8v17.276
					c-0.115-0.015-0.229-0.023-0.345-0.038l-0.038,0.39h-0.383v-16.863H245.027z"/>
				<path class="st1" d="M76.914,379.974c18.149-18.095,46.007-18.011,64.447-17.98c9.502,0.03,17.001,0.053,19.426-2.364
					c0.505-0.498,0.78-1.102,0.826-1.813l0.39-0.268h0.391c0,1.041-0.36,1.92-1.063,2.624c-2.647,2.647-9.916,2.625-19.97,2.594
					c-18.31-0.046-45.984-0.122-63.903,17.744c-12.12,12.081-18.294,31.003-18.355,56.221H58.72v0.383h-0.383
					C58.337,411.489,64.588,392.262,76.914,379.974z"/>
				<path class="st1" d="M148.239,316.231v0.383h-0.375c-0.008-0.13-0.008-0.253-0.008-0.383H148.239z"/>
				<path class="st1" d="M327.109,314.533l0.085,0.383l-0.353,0.038l-0.038-0.344C326.903,314.586,327.011,314.556,327.109,314.533z
					"/>
				<path class="st1" d="M388.656,363.738c35.662,5.976,53.008,29.993,53.008,73.375h-0.383v-0.383h-0.382
					c-0.1-42.862-17.354-66.504-52.732-72.296l0.061-0.375l0.383,0.046L388.656,363.738z"/>
				<path class="st1" d="M159.272,267.662c60.843-17.3,121.433-13.222,161.541-6.741l-0.054,0.375l-0.359,0.046l0.038,0.291
					c-39.962-6.435-100.131-10.444-160.591,6.649v-0.245l-0.482-0.007L159.272,267.662z"/>
				<path class="st1" d="M309.948,178.157l-0.245,0.291l-0.383,0.054l-0.122-0.964C309.451,177.744,309.695,177.951,309.948,178.157
					z"/>
				<path class="st1" d="M159.456,268.388c0.13-0.038,0.26-0.077,0.391-0.107l-0.237,27.292h-0.604c0,0.428,0.023,0.849,0.069,1.27
					h-0.191l0.252-28.814h0.229L159.456,268.388z"/>
				<path class="st1" d="M441.281,436.73v0.383h-0.382c0-0.13,0-0.26,0-0.383H441.281z"/>
				<path class="st1" d="M244.262,154.293h0.382l0.031,0.383c-33.245,2.884-65.579,29.511-96.107,79.121l-0.344-0.207h0.398v-1.339
					c30.345-48.922,62.519-75.265,95.641-78.311V154.293z"/>
				<path class="st1" d="M141.735,270.699v45.15h6.504v0.382h-0.383c0,0.13,0,0.252,0.008,0.383h-6.894v-45.143h-6.886v-42.089
					h14.537v2.869c-0.237,0.382-0.474,0.765-0.711,1.147l0.313,0.191h-0.367v-3.436H134.85v40.544H141.735z"/>
			</g>
			<g>
			</g>
		</g>
	</g>
</g>
</svg>
