<?xml version="1.0" encoding="utf-8"?>
<!-- Generator: Adobe Illustrator 16.0.4, SVG Export Plug-In . SVG Version: 6.00 Build 0)  -->
<!DOCTYPE svg PUBLIC "-//W3C//DTD SVG 1.1//EN" "http://www.w3.org/Graphics/SVG/1.1/DTD/svg11.dtd">
<svg version="1.1" id="Layer_1" xmlns="http://www.w3.org/2000/svg" xmlns:xlink="http://www.w3.org/1999/xlink" x="0px" y="0px"
	 width="55.377px" height="35.5px" viewBox="0 0 55.377 35.5" style="enable-background:new 0 0 55.377 35.5;" xml:space="preserve"
	>
<style type="text/css">
<![CDATA[
	.st0{fill:#F1F10E;}
	.st1{fill:#337BAE;}
	.st2{fill:#33CC72;}
]]>
</style>
<g id="XMLID_1_">
	<g>
		<circle class="st0" cx="7.004" cy="28.814" r="1.688"/>
		<circle class="st0" cx="48.372" cy="28.814" r="1.688"/>
		<circle class="st0" cx="15.279" cy="28.814" r="1.688"/>
		<path class="st1" d="M13.59,28.814c0,0.932,0.756,1.688,1.688,1.688c0.931,0,1.688-0.756,1.688-1.688s-0.757-1.688-1.688-1.688
			C14.347,27.125,13.59,27.882,13.59,28.814z M5.315,28.814c0,0.932,0.755,1.688,1.688,1.688s1.69-0.756,1.69-1.688
			s-0.757-1.688-1.69-1.688S5.315,27.882,5.315,28.814z M39.77,11.646c8.69,2.376,15.36,7.489,15.357,15.339v5.627
			c0,3.517-54.877,3.517-54.877,0v-5.627c0-7.848,6.667-12.961,15.355-15.337c-0.815,2.741-1.285,5.977-1.285,9.708
			c0,2.814,26.733,2.814,26.733,0C41.054,17.625,40.585,14.389,39.77,11.646z M25.241,28.814c0-0.932-0.757-1.688-1.688-1.688
			c-0.933,0-1.688,0.756-1.688,1.688s0.755,1.688,1.688,1.688C24.483,30.502,25.241,29.746,25.241,28.814z M33.513,28.814
			c0-0.932-0.755-1.688-1.687-1.688s-1.688,0.756-1.688,1.688s0.756,1.688,1.688,1.688S33.513,29.746,33.513,28.814z M41.788,28.814
			c0-0.932-0.756-1.688-1.688-1.688c-0.933,0-1.688,0.756-1.688,1.688s0.755,1.688,1.688,1.688
			C41.032,30.502,41.788,29.746,41.788,28.814z M46.684,28.814c0,0.932,0.758,1.688,1.688,1.688c0.932,0,1.689-0.756,1.689-1.688
			s-0.757-1.688-1.689-1.688C47.441,27.125,46.684,27.882,46.684,28.814z"/>
		<circle class="st0" cx="40.1" cy="28.814" r="1.688"/>
		<path class="st2" d="M15.605,11.649C20.124-3.549,35.25-3.549,39.77,11.646c0.815,2.742,1.284,5.979,1.284,9.71
			c0,2.814-26.733,2.814-26.733,0C14.321,17.626,14.79,14.39,15.605,11.649z"/>
		<circle class="st0" cx="23.552" cy="28.814" r="1.688"/>
		<circle class="st0" cx="31.826" cy="28.814" r="1.688"/>
	</g>
	<g>
	</g>
</g>
</svg>
