<svg xmlns="http://www.w3.org/2000/svg" height="200" viewBox="0 0 501.5 490.616">
  <style>
    .st1{fill:#231f20}.st2{fill:#33cc72}
  </style>
  <g>
    <path class="st2" d="M265.36 18.846c7.189 8.19 10.1 18.93 8.67 31.94-.8 7.26-2.931 14.43-4.99 21.36-.61 2.05-1.21 4.08-1.771 6.09-2.27 8.1-4.01 11.47-5.699 14.72-.7 1.34-1.41 2.73-2.15 4.41h-14.2c-.39-7.36-3.88-12.52-10.4-15.32-18.29-7.88-57.13 5.7-68.45 15.69-11.38 10.04-18.92 22.04-26.91 34.75-1.68 2.68-3.38 5.37-5.13 8.08-6.8 10.51-7.99 11.64-14.59 17.92-2.62 2.49-6.21 5.89-11.34 11.03-7.69 7.68-24.84 19.06-45.83 27.17-22.11 8.55-41.11 10.42-53.67 5.33 3.97-2.61 7.99-5.01 11.88-7.34 7.23-4.32 14.7-8.8 22.01-14.69 16.64-13.45 37-32.11 46.7-57.19 4.52-11.69 6.57-23.27 8.56-34.46 3.31-18.69 6.44-36.33 20.31-53.15 26.84-32.54 60.48-34.57 98.48-33.82 21.76.43 38.99 6.64 48.52 17.48zM259.75 97.366v.5l-.46-.2c.04-.1.09-.2.13-.3h.33z"/>
    <path class="st2" d="M245.22 97.366c.02.16.02.32.03.48l-1 .04c-.01-.17-.01-.35-.03-.52h1z"/>
    <path class="st2" d="M259.29 97.666l.46.2v.5h-16v-1h.47c.02.17.02.35.03.52l1-.04c-.01-.16-.01-.32-.03-.48h14.2c-.04.1-.09.2-.13.3z"/>
    <path class="st2" d="M89.49 122.796c-9.7 25.08-30.06 43.74-46.7 57.19-7.31 5.89-14.78 10.37-22.01 14.69-3.89 2.33-7.91 4.73-11.88 7.34 12.56 5.09 31.56 3.22 53.67-5.33 20.99-8.11 38.14-19.49 45.83-27.17 5.13-5.14 8.72-8.54 11.34-11.03 6.6-6.28 7.79-7.41 14.59-17.92 1.75-2.71 3.45-5.4 5.13-8.08 7.99-12.71 15.53-24.71 26.91-34.75 11.32-9.99 50.16-23.57 68.45-15.69 6.52 2.8 10.01 7.96 10.4 15.32h-1c-.38-6.93-3.68-11.78-9.8-14.41-17.97-7.74-56.22 5.67-67.39 15.53-11.27 9.94-18.78 21.89-26.73 34.53a710.51 710.51 0 0 1-5.13 8.09c-6.86 10.62-8.07 11.76-14.74 18.1-2.62 2.49-6.2 5.89-11.33 11.01-13.47 13.48-53.41 35.67-83.74 35.67-6.46 0-12.47-1-17.71-3.31l-.84-.37.76-.51c4.24-2.82 8.54-5.39 12.7-7.88 7.19-4.3 14.64-8.76 21.89-14.61 16.55-13.37 36.78-31.91 46.4-56.77 4.49-11.6 6.53-23.13 8.5-34.28 3.34-18.81 6.49-36.59 20.53-53.61 27.12-32.88 61-34.94 99.27-34.18 22.04.43 39.541 6.76 49.25 17.82 7.38 8.41 10.38 19.41 8.909 32.71-.81 7.35-2.949 14.56-5.02 21.54-.61 2.04-1.21 4.06-1.77 6.06-2.29 8.21-4.061 11.62-5.771 14.92-.76 1.47-1.479 2.86-2.25 4.65l-.46-.2v-.5h-.33c.74-1.68 1.45-3.07 2.15-4.41 1.689-3.25 3.43-6.62 5.699-14.72.561-2.01 1.16-4.04 1.771-6.09 2.06-6.93 4.19-14.1 4.99-21.36 1.43-13.01-1.48-23.75-8.67-31.94-9.53-10.84-26.76-17.05-48.521-17.48-38-.75-71.64 1.28-98.48 33.82-13.87 16.82-17 34.46-20.31 53.15-1.987 11.19-4.037 22.77-8.557 34.46z"/>
  </g>
  <g>
    <path class="st1" d="M500.75 489.366v.5h-.5v-.5h.5zM466.1 120.666l.4-.3.5.06-35.03 273.53c-.149-.03-.31-.05-.47-.08l-.09.5-.49-.06 35.061-273.82.119.17zM396.03 25.566l70.87 94.5-.4.3-.5-.06-.02.19-70.35-93.79.4-.54-.4-.3z"/>
    <path class="st1" d="M466.5 120.366l-.4.3-.12-.17.02-.19zM431.97 393.956l-.06.48-.5-.061.09-.5c.16.031.32.051.47.081z"/>
    <path class="st1" d="M500.75 489.366h-.5c-.13-56.02-22.68-86.93-68.92-94.5l.08-.49.5.061.06-.48c46.61 7.82 69.28 39.2 69.28 95.91h-.5v-.501zM396.03 26.166l-.4.54-.41-.54.41-.3z"/>
    <path class="st1" d="M395.63 25.866l-.41.3.41.54-70.36 93.79-.02-.19-.5.06-.4-.3 70.87-94.5zM343.69 260.006l8.42 70.08-.471.061-.109-.49c-.13.03-.271.07-.4.1l-8.33-69.25.36.061.07-.5.46-.062z"/>
    <path class="st1" d="M351.53 329.656l.109.49-.46.06-.05-.45c.131-.029.271-.069.401-.1z"/>
    <path class="st2" d="M342.8 260.506l8.33 69.25c-35.439 9.051-85.53 7.61-91.32 2.761-.199-.16-.43-.4-.43-.65h-.93c0 1.87-10.04 4.5-32.36 4.5-21.7 0-44.45-2.61-60.86-6.99-14.81-3.939-32.47-11.399-32.47-24.51h-.15l.31-35.66c79.02-22.351 157.65-17.101 209.88-8.701z"/>
    <path class="st1" d="M343.23 260.066l-.07.5-.36-.061-.04-.37.47-.069zM329.1 151.406l-.319.39-.5.06-.16-1.26c.329.27.649.54.979.81zM325.25 120.306l.02.19-.12.17-.4-.3z"/>
    <path class="st1" d="M325.15 120.666l.119-.17 4 31.24-.489.06.319-.39c-.33-.27-.649-.54-.979-.81l-3.87-30.17.5-.06.4.3zM262.25 119.956v.45h-.5l.05-.5c.15.02.3.03.45.05z"/>
    <path class="st1" d="M262.25 119.956c22.04 2.48 44.19 12.79 65.87 30.64l.16 1.26.5-.06-.32.38c-21.979-18.34-44.44-28.86-66.76-31.27l.05-.5h.5v-.45zM351.75 330.636c-18.88 4.87-41.39 6.78-59.55 6.78-16.91 0-30.04-1.66-32.97-4.109-.11-.101-.221-.2-.301-.301.45-.489.45-.899.45-1.14 0 .25.23.49.43.65 5.79 4.85 55.881 6.29 91.32-2.761l.05.45.46-.06.111.491z"/>
    <path class="st1" d="M258.45 331.866h.93c0 .24 0 .65-.45 1.14-.32-.35-.48-.73-.48-1.14zM262.25 97.366v22.59c-.15-.02-.3-.03-.45-.05l-.05.5h-.5v-22.04h-17v21.85h-.5l-.04-.5c-.15.01-.31.03-.46.04v-22.39h19z"/>
    <path class="st1" d="M243.71 119.716l.04.5h-.5v-.46c.15-.01.31-.03.46-.04zM342.8 260.506c-52.229-8.399-130.86-13.649-209.88 8.7v-.33l-.63-.01-.12-.48c79.52-22.609 158.71-17.27 211.13-8.81l-.069.49-.471.069.04.371zM135.74 385.866l-.51.35c.02-.109.02-.229.02-.35h.49z"/>
    <path class="st1" d="M132.92 268.876v.33c-.17.04-.34.09-.51.141l-.12-.48.63.009zM165.23 329.376c16.41 4.38 39.16 6.99 60.86 6.99 22.32 0 32.36-2.63 32.36-4.5 0 .41.16.79.479 1.14-.8.88-3.05 2.04-9.33 2.98-5.96.89-14.31 1.38-23.51 1.38-21.77 0-44.61-2.62-61.08-7.01-20.59-5.49-31.98-13.7-33.1-23.83l.69.01.01-1.67h.15c.001 13.111 17.661 20.571 32.471 24.51z"/>
    <path class="st1" d="M132.61 304.866l-.01 1.67-.69-.01c-.06-.55-.09-1.101-.09-1.66h.79z"/>
    <path class="st1" d="M132.41 269.347c.17-.051.34-.101.51-.141l-.31 35.66h-.79c0 .56.03 1.11.09 1.66h-.25l.33-37.66h.3l.12.481zM135.25 385.866c0 .12 0 .24-.02.35l-.25.17c-11.66-17.17-17.62-35.34-17.72-54.02h.49v-.5h.5c0 18.66 5.91 36.81 17.56 53.95l-.07.05h-.49zM243.79 120.716c-43.45 3.77-85.71 38.57-125.61 103.41l-.43-.26h.5v-1.76c39.66-63.94 81.71-98.37 125-102.35v.46h.5l.04.5z"/>
    <path class="st1" d="M118.25 222.106v1.76h-.5l-.43-.26.93-1.5z"/>
    <path d="M118.18 224.126c39.9-64.84 82.16-99.64 125.61-103.41l-.04-.5h.5v-21.85h17v22.04h.5l-.05.5c22.319 2.41 44.78 12.93 66.76 31.27l.32-.38.489-.06-4-31.24 70.36-93.79 70.351 93.79-35.061 273.82.49.06-.08.49c46.24 7.57 68.79 38.48 68.92 94.5h-499c.08-32.97 8.15-57.69 23.99-73.48 23.42-23.359 59.59-23.25 83.52-23.199 13.14.04 22.64.069 26.1-3.391.92-.92 1.39-2.069 1.39-3.43h-.51l.07-.05c-11.65-17.141-17.56-35.29-17.56-53.95h-.5v-.5h-8.5v-59h-9v-53h17v4.5h.5l.431.26zm233.93 105.96l-8.42-70.08-.46.061.069-.49c-52.42-8.46-131.61-13.8-211.13 8.81l.12.48h-.3l-.33 37.66h.25c1.12 10.13 12.51 18.34 33.1 23.83 16.47 4.39 39.31 7.01 61.08 7.01 9.2 0 17.55-.49 23.51-1.38 6.28-.94 8.53-2.101 9.33-2.98.08.101.19.2.301.301 2.93 2.449 16.06 4.109 32.97 4.109 18.16 0 40.67-1.91 59.55-6.78l-.11-.489.47-.062z" fill="#1a405f"/>
    <path class="st1" d="M117.75 331.866v.5h-.49c-.01-.17-.01-.33-.01-.5h.5z"/>
    <path class="st1" d="M100.25 272.366h9v59h8.5v.5h-.5c0 .17 0 .33.01.5h-9.01v-59h-9v-55h19v3.74l-.93 1.5.43.26h-.5v-4.5h-17v53zM24.53 415.176c23.72-23.649 60.13-23.54 84.23-23.489 12.42.04 22.22.06 25.39-3.101a3.517 3.517 0 0 0 1.08-2.37l.51-.35h.51c0 1.36-.47 2.51-1.39 3.43-3.46 3.46-12.96 3.431-26.1 3.391-23.93-.051-60.1-.16-83.52 23.199-15.84 15.79-23.91 40.511-23.99 73.48h-.5v.5h-.5c0-33.5 8.17-58.62 24.28-74.69z"/>
    <path class="st1" d="M1.25 489.366v.5h-.5v-.5h.5z"/>
    <path class="st1" d="M1.25 489.866v-.5h499v.5h.5v.5H.75v-.5h.5z"/>
  </g>
</svg>
