<?xml version="1.0" encoding="utf-8"?>
<!-- Generator: Adobe Illustrator 16.0.4, SVG Export Plug-In . SVG Version: 6.00 Build 0)  -->
<!DOCTYPE svg PUBLIC "-//W3C//DTD SVG 1.1//EN" "http://www.w3.org/Graphics/SVG/1.1/DTD/svg11.dtd">
<svg version="1.1" id="Layer_1" xmlns="http://www.w3.org/2000/svg" xmlns:xlink="http://www.w3.org/1999/xlink" x="0px" y="0px"
	 width="501.5px" height="490.616px" viewBox="0 0 501.5 490.616" style="enable-background:new 0 0 501.5 490.616;"
	 xml:space="preserve">
<style type="text/css">
<![CDATA[
	.st0{fill:#FAF4EB;}
	.st1{fill:#33CC72;}
]]>
</style>
<g>
	<g id="XMLID_1_">
		<g>
			<path class="st1" d="M265.36,18.846c7.189,8.19,10.1,18.93,8.67,31.94c-0.8,7.26-2.931,14.43-4.99,21.36
				c-0.61,2.05-1.21,4.08-1.771,6.09c-2.27,8.1-4.01,11.47-5.699,14.72c-0.7,1.34-1.41,2.73-2.15,4.41h-14.2
				c-0.39-7.36-3.88-12.52-10.4-15.32c-18.29-7.88-57.13,5.7-68.45,15.69c-11.38,10.04-18.92,22.04-26.91,34.75
				c-1.68,2.68-3.38,5.37-5.13,8.08c-6.8,10.51-7.99,11.64-14.59,17.92c-2.62,2.49-6.21,5.89-11.34,11.03
				c-7.69,7.68-24.84,19.06-45.83,27.17c-22.11,8.55-41.11,10.42-53.67,5.33c3.97-2.61,7.99-5.01,11.88-7.34
				c7.23-4.32,14.7-8.8,22.01-14.69c16.64-13.45,37-32.11,46.7-57.19c4.52-11.69,6.57-23.27,8.56-34.46
				c3.31-18.69,6.44-36.33,20.31-53.15c26.84-32.54,60.48-34.57,98.48-33.82C238.6,1.796,255.83,8.006,265.36,18.846z"/>
			<path class="st1" d="M259.75,97.366v0.5l-0.46-0.2c0.04-0.1,0.09-0.2,0.13-0.3H259.75z"/>
			<path class="st1" d="M245.22,97.366c0.02,0.16,0.02,0.32,0.03,0.48l-1,0.04c-0.01-0.17-0.01-0.35-0.03-0.52H245.22z"/>
			<path class="st1" d="M259.29,97.666l0.46,0.2v0.5h-16v-1h0.47c0.02,0.17,0.02,0.35,0.03,0.52l1-0.04
				c-0.01-0.16-0.01-0.32-0.03-0.48h14.2C259.38,97.466,259.33,97.566,259.29,97.666z"/>
			<path class="st1" d="M139.46,132.486c7.99-12.71,15.53-24.71,26.91-34.75c11.32-9.99,50.16-23.57,68.45-15.69
				c6.52,2.8,10.01,7.96,10.4,15.32h-1c-0.38-6.93-3.68-11.78-9.8-14.41c-17.97-7.74-56.22,5.67-67.39,15.53
				c-11.27,9.94-18.78,21.89-26.73,34.53c-1.68,2.68-3.38,5.38-5.13,8.09c-6.86,10.62-8.07,11.76-14.74,18.1
				c-2.62,2.49-6.2,5.89-11.33,11.01c-13.47,13.48-53.41,35.67-83.74,35.67c-6.46,0-12.47-1-17.71-3.31l-0.84-0.37l0.76-0.51
				c4.24-2.82,8.54-5.39,12.7-7.88c7.19-4.3,14.64-8.76,21.89-14.61c16.55-13.37,36.78-31.91,46.4-56.77
				c4.49-11.6,6.53-23.13,8.5-34.28c3.34-18.81,6.49-36.59,20.53-53.61c27.12-32.88,61-34.94,99.27-34.18
				c22.04,0.43,39.541,6.76,49.25,17.82c7.38,8.41,10.38,19.41,8.909,32.71c-0.81,7.35-2.949,14.56-5.02,21.54
				c-0.61,2.04-1.21,4.06-1.77,6.06c-2.29,8.21-4.061,11.62-5.771,14.92c-0.76,1.47-1.479,2.86-2.25,4.65l-0.46-0.2v-0.5h-0.33
				c0.74-1.68,1.45-3.07,2.15-4.41c1.689-3.25,3.43-6.62,5.699-14.72c0.561-2.01,1.16-4.04,1.771-6.09
				c2.06-6.93,4.19-14.1,4.99-21.36c1.43-13.01-1.48-23.75-8.67-31.94c-9.53-10.84-26.76-17.05-48.521-17.48
				c-38-0.75-71.64,1.28-98.48,33.82c-13.87,16.82-17,34.46-20.31,53.15c-1.99,11.19-4.04,22.77-8.56,34.46
				c-9.7,25.08-30.06,43.74-46.7,57.19c-7.31,5.89-14.78,10.37-22.01,14.69c-3.89,2.33-7.91,4.73-11.88,7.34
				c12.56,5.09,31.56,3.22,53.67-5.33c20.99-8.11,38.14-19.49,45.83-27.17c5.13-5.14,8.72-8.54,11.34-11.03
				c6.6-6.28,7.79-7.41,14.59-17.92C136.08,137.856,137.78,135.166,139.46,132.486z"/>
		</g>
		<g>
		</g>
	</g>
</g>
<g>
	<g id="XMLID_2_">
		<g>
			<path class="st0" d="M500.75,489.366v0.5h-0.5c0-0.17,0-0.34,0-0.5H500.75z"/>
			<path class="st0" d="M466.1,120.666l0.4-0.3l0.5,0.06l-35.03,273.53c-0.149-0.03-0.31-0.05-0.47-0.08l-0.09,0.5l-0.49-0.06
				l35.061-273.82L466.1,120.666z"/>
			<polygon class="st0" points="396.03,25.566 466.9,120.066 466.5,120.366 466,120.306 465.98,120.496 395.63,26.706 
				396.03,26.166 395.63,25.866 			"/>
			<polygon class="st0" points="466.5,120.366 466.1,120.666 465.98,120.496 466,120.306 			"/>
			<path class="st0" d="M431.97,393.956l-0.06,0.48l-0.5-0.061l0.09-0.5C431.66,393.906,431.82,393.926,431.97,393.956z"/>
			<path class="st0" d="M500.75,489.366h-0.5c-0.13-56.02-22.68-86.93-68.92-94.5l0.08-0.49l0.5,0.061l0.06-0.48
				c46.61,7.82,69.28,39.2,69.28,95.91h-0.5V489.366z"/>
			<polygon class="st0" points="396.03,26.166 395.63,26.706 395.22,26.166 395.63,25.866 			"/>
			<polygon class="st0" points="395.63,25.866 395.22,26.166 395.63,26.706 325.27,120.496 325.25,120.306 324.75,120.366 
				324.35,120.066 395.22,25.566 			"/>
			<path class="st0" d="M343.69,260.006l8.42,70.08l-0.471,0.061l-0.109-0.49c-0.13,0.03-0.271,0.07-0.4,0.1l-8.33-69.25
				c0.12,0.021,0.24,0.04,0.36,0.061l0.07-0.5L343.69,260.006z"/>
			<path class="st0" d="M351.53,329.656l0.109,0.49l-0.46,0.06l-0.05-0.45C351.26,329.727,351.4,329.687,351.53,329.656z"/>
			<path class="st1" d="M342.8,260.506l8.33,69.25c-35.439,9.051-85.53,7.61-91.32,2.761c-0.199-0.16-0.43-0.4-0.43-0.65h-0.93
				c0,1.87-10.04,4.5-32.36,4.5c-21.7,0-44.45-2.61-60.86-6.99c-14.81-3.939-32.47-11.399-32.47-24.51h-0.15l0.31-35.66
				C211.94,246.856,290.57,252.106,342.8,260.506z"/>
			<path class="st0" d="M343.23,260.066l-0.07,0.5c-0.12-0.021-0.24-0.04-0.36-0.061l-0.04-0.37L343.23,260.066z"/>
			<path class="st0" d="M329.1,151.406l-0.319,0.39l-0.5,0.06l-0.16-1.26C328.45,150.866,328.77,151.136,329.1,151.406z"/>
			<polygon class="st0" points="325.25,120.306 325.27,120.496 325.15,120.666 324.75,120.366 			"/>
			<path class="st0" d="M325.15,120.666l0.119-0.17l4,31.24l-0.489,0.06l0.319-0.39c-0.33-0.27-0.649-0.54-0.979-0.81l-3.87-30.17
				l0.5-0.06L325.15,120.666z"/>
			<path class="st0" d="M262.25,119.956v0.45h-0.5l0.05-0.5C261.95,119.926,262.1,119.936,262.25,119.956z"/>
			<path class="st0" d="M328.28,151.856l0.5-0.06l-0.32,0.38c-21.979-18.34-44.44-28.86-66.76-31.27l0.05-0.5h0.5v-0.45
				c22.04,2.48,44.19,12.79,65.87,30.64L328.28,151.856z"/>
			<path class="st0" d="M351.18,330.206l0.46-0.06l0.11,0.489c-18.88,4.87-41.39,6.78-59.55,6.78c-16.91,0-30.04-1.66-32.97-4.109
				c-0.11-0.101-0.221-0.2-0.301-0.301c0.45-0.489,0.45-0.899,0.45-1.14c0,0.25,0.23,0.49,0.43,0.65
				c5.79,4.85,55.881,6.29,91.32-2.761L351.18,330.206z"/>
			<path class="st0" d="M258.45,331.866h0.93c0,0.24,0,0.65-0.45,1.14C258.61,332.656,258.45,332.276,258.45,331.866z"/>
			<path class="st0" d="M262.25,97.366v22.59c-0.15-0.02-0.3-0.03-0.45-0.05l-0.05,0.5h-0.5v-22.04h-17v21.85h-0.5l-0.04-0.5
				c-0.15,0.01-0.31,0.03-0.46,0.04v-22.39H262.25z"/>
			<path class="st0" d="M243.71,119.716l0.04,0.5h-0.5v-0.46C243.4,119.746,243.56,119.726,243.71,119.716z"/>
			<path class="st0" d="M342.8,260.506c-52.229-8.399-130.86-13.649-209.88,8.7v-0.33l-0.63-0.01l-0.12-0.48
				c79.52-22.609,158.71-17.27,211.13-8.81l-0.069,0.49l-0.471,0.069L342.8,260.506z"/>
			<path class="st0" d="M135.74,385.866l-0.51,0.35c0.02-0.109,0.02-0.229,0.02-0.35H135.74z"/>
			<path class="st0" d="M132.92,268.876v0.33c-0.17,0.04-0.34,0.09-0.51,0.141l-0.12-0.48L132.92,268.876z"/>
			<path class="st0" d="M132.76,304.866c0,13.11,17.66,20.57,32.47,24.51c16.41,4.38,39.16,6.99,60.86,6.99
				c22.32,0,32.36-2.63,32.36-4.5c0,0.41,0.16,0.79,0.479,1.14c-0.8,0.88-3.05,2.04-9.33,2.98c-5.96,0.89-14.31,1.38-23.51,1.38
				c-21.77,0-44.61-2.62-61.08-7.01c-20.59-5.49-31.98-13.7-33.1-23.83l0.69,0.01l0.01-1.67H132.76z"/>
			<path class="st0" d="M132.61,304.866l-0.01,1.67l-0.69-0.01c-0.06-0.55-0.09-1.101-0.09-1.66H132.61z"/>
			<path class="st0" d="M132.41,269.347c0.17-0.051,0.34-0.101,0.51-0.141l-0.31,35.66h-0.79c0,0.56,0.03,1.11,0.09,1.66h-0.25
				l0.33-37.66h0.3L132.41,269.347z"/>
			<path class="st0" d="M135.25,385.866c0,0.12,0,0.24-0.02,0.35l-0.25,0.17c-11.66-17.17-17.62-35.34-17.72-54.02h0.49v-0.5h0.5
				c0,18.66,5.91,36.81,17.56,53.95l-0.07,0.05H135.25z"/>
			<path class="st0" d="M118.25,222.106c39.66-63.94,81.71-98.37,125-102.35v0.46h0.5l0.04,0.5
				c-43.45,3.77-85.71,38.57-125.61,103.41l-0.43-0.26h0.5V222.106z"/>
			<path class="st0" d="M118.25,222.106v1.76h-0.5l-0.43-0.26C117.63,223.106,117.94,222.606,118.25,222.106z"/>
			<path class="st0" d="M118.18,224.126c39.9-64.84,82.16-99.64,125.61-103.41l-0.04-0.5h0.5v-21.85h17v22.04h0.5l-0.05,0.5
				c22.319,2.41,44.78,12.93,66.76,31.27l0.32-0.38l0.489-0.06l-4-31.24l70.36-93.79l70.351,93.79l-35.061,273.82l0.49,0.06
				l-0.08,0.49c46.24,7.57,68.79,38.48,68.92,94.5h-499c0.08-32.97,8.15-57.69,23.99-73.48c23.42-23.359,59.59-23.25,83.52-23.199
				c13.14,0.04,22.64,0.069,26.1-3.391c0.92-0.92,1.39-2.069,1.39-3.43h-0.51l0.07-0.05c-11.65-17.141-17.56-35.29-17.56-53.95h-0.5
				v-0.5h-8.5v-59h-9v-53h17v4.5h0.5L118.18,224.126z M352.11,330.086l-8.42-70.08l-0.46,0.061l0.069-0.49
				c-52.42-8.46-131.61-13.8-211.13,8.81l0.12,0.48h-0.3l-0.33,37.66h0.25c1.12,10.13,12.51,18.34,33.1,23.83
				c16.47,4.39,39.31,7.01,61.08,7.01c9.2,0,17.55-0.49,23.51-1.38c6.28-0.94,8.53-2.101,9.33-2.98c0.08,0.101,0.19,0.2,0.301,0.301
				c2.93,2.449,16.06,4.109,32.97,4.109c18.16,0,40.67-1.91,59.55-6.78l-0.11-0.489L352.11,330.086z"/>
			<path class="st0" d="M117.75,331.866v0.5h-0.49c-0.01-0.17-0.01-0.33-0.01-0.5H117.75z"/>
			<path class="st0" d="M118.25,218.366v3.74c-0.31,0.5-0.62,1-0.93,1.5l0.43,0.26h-0.5v-4.5h-17v53h9v59h8.5v0.5h-0.5
				c0,0.17,0,0.33,0.01,0.5h-9.01v-59h-9v-55H118.25z"/>
			<path class="st0" d="M108.76,392.687c-23.93-0.051-60.1-0.16-83.52,23.199c-15.84,15.79-23.91,40.511-23.99,73.48h-0.5v0.5h-0.5
				c0-33.5,8.17-58.62,24.28-74.69c23.72-23.649,60.13-23.54,84.23-23.489c12.42,0.04,22.22,0.06,25.39-3.101
				c0.66-0.649,1.02-1.43,1.08-2.37l0.51-0.35h0.51c0,1.36-0.47,2.51-1.39,3.43C131.4,392.756,121.9,392.727,108.76,392.687z"/>
			<path class="st0" d="M1.25,489.366c0,0.16,0,0.33,0,0.5h-0.5v-0.5H1.25z"/>
			<path class="st0" d="M500.25,489.866h0.5v0.5h-500v-0.5h0.5c0-0.17,0-0.34,0-0.5h499
				C500.25,489.526,500.25,489.696,500.25,489.866z"/>
		</g>
		<g>
		</g>
	</g>
</g>
</svg>
